<svg xmlns="http://www.w3.org/2000/svg" width="26" height="26" viewBox="0 0 26 26" fill="none">
<path d="M22.6233 19.6858C22.6078 20.0455 22.512 20.4117 22.3267 20.7641C22.1414 21.1165 21.9071 21.4467 21.6036 21.754C21.0909 22.2725 20.5346 22.639 19.9145 22.8626C19.3043 23.0866 18.6493 23.1886 17.95 23.1586C16.9309 23.1148 15.8522 22.8283 14.7243 22.2894C13.5964 21.7505 12.4757 21.0418 11.3724 20.1637C10.2595 19.2751 9.21039 18.2992 8.21553 17.2255C7.23109 16.1423 6.3487 15.0134 5.56837 13.8389C4.79802 12.6647 4.18753 11.4975 3.75645 10.3479C3.32579 9.18838 3.13277 8.08908 3.17738 7.05004C3.20655 6.37067 3.35432 5.72641 3.61984 5.13726C3.88579 4.53812 4.28946 3.99493 4.84042 3.51813C5.50685 2.91616 6.21951 2.63648 6.95883 2.66822C7.23857 2.68023 7.51574 2.75219 7.76036 2.8828C8.01497 3.01384 8.23704 3.20354 8.40572 3.47102L10.5833 6.83753C10.7524 7.09503 10.8724 7.33039 10.9529 7.55405C11.0338 7.76772 11.0748 7.97967 11.0666 8.16949C11.0563 8.40927 10.9761 8.64605 10.8264 8.86983C10.6866 9.09404 10.4865 9.32567 10.2364 9.55516L9.44323 10.3118C9.32861 10.417 9.27308 10.5447 9.26622 10.7046C9.26279 10.7845 9.26978 10.8549 9.28633 10.9357C9.31287 11.0169 9.34027 11.0781 9.35767 11.1389C9.52335 11.4763 9.81462 11.9192 10.2319 12.4576C10.6592 12.9965 11.116 13.5466 11.6128 14.0984C12.1296 14.6511 12.6281 15.1629 13.1383 15.6352C13.6389 16.0971 14.0557 16.4153 14.3876 16.6097C14.4367 16.6318 14.4954 16.6644 14.564 16.6974C14.6427 16.7308 14.7222 16.7442 14.8121 16.7481C14.9819 16.7553 15.1144 16.701 15.229 16.5958L16.0205 15.8791C16.281 15.64 16.5289 15.4605 16.7638 15.3505C16.9996 15.2205 17.2324 15.1604 17.4822 15.1711C17.672 15.1793 17.8701 15.2278 18.086 15.3272C18.302 15.4265 18.5262 15.5663 18.7687 15.7469L21.9748 18.2367C22.2269 18.4277 22.3977 18.6452 22.4969 18.8997C22.586 19.1537 22.6353 19.4061 22.6233 19.6858Z" stroke="#232323" stroke-width="1.5" stroke-miterlimit="10"/>
<path d="M19.5567 10.2156C19.5824 9.61613 19.1523 8.67682 18.4851 7.89748C17.8753 7.18066 17.0492 6.6047 16.21 6.56866" stroke="#232323" stroke-width="1.5" stroke-linecap="round" stroke-linejoin="round"/>
<path d="M23.0535 10.3657C23.2195 6.49929 20.2266 3.23791 16.3602 3.0719" stroke="#232323" stroke-width="1.5" stroke-linecap="round" stroke-linejoin="round"/>
</svg>